<svg width="207" height="203" viewBox="0 0 207 203" fill="none" xmlns="http://www.w3.org/2000/svg">
<circle cx="109.5" cy="97.5" r="97.5" fill="url(#paint0_linear_2_25)"/>
<circle cx="97.5" cy="105.5" r="96" stroke="#6061F6" stroke-width="3"/>
<path d="M57.9837 59.4074L57.9872 59.4061L88.339 47.9709C88.3396 47.9707 88.3403 47.9705 88.3409 47.9702C90.6461 47.1096 93.785 46.6514 97.0152 46.6514C100.242 46.6514 103.415 47.1086 105.788 47.9728C105.79 47.9735 105.792 47.9742 105.794 47.9749L136.137 59.3462L136.138 59.3466C139.292 60.5258 142.242 63.0217 144.41 66.1558C146.578 69.2897 147.878 72.9366 147.878 76.3132V121.512C147.878 124.804 146.779 128.723 144.943 132.374C143.107 136.024 140.609 139.254 137.956 141.237C137.956 141.237 137.956 141.237 137.955 141.238L111.798 160.765L111.794 160.768C107.811 163.762 102.471 165.303 97.0608 165.303C91.6508 165.303 86.311 163.762 82.328 160.768L82.324 160.765L56.1663 141.238C56.1661 141.237 56.1659 141.237 56.1656 141.237C53.5123 139.254 51.0151 136.024 49.1791 132.374C47.3426 128.723 46.2442 124.804 46.2442 121.512V76.3132C46.2442 72.9693 47.5419 69.338 49.7105 66.2103C51.8789 63.0829 54.8296 60.5868 57.9837 59.4074Z" stroke="white" stroke-width="3" stroke-linecap="round" stroke-linejoin="round"/>
<mask id="path-4-inside-1_2_25" fill="white">
<path d="M79.0542 105.209L88.8483 115.003L115.007 88.845"/>
</mask>
<path d="M81.1755 103.088C80.0039 101.916 78.1044 101.916 76.9328 103.088C75.7613 104.259 75.7613 106.159 76.9328 107.33L81.1755 103.088ZM88.8483 115.003L86.727 117.125C87.8986 118.296 89.7981 118.296 90.9697 117.125L88.8483 115.003ZM117.128 90.9663C118.3 89.7947 118.3 87.8952 117.128 86.7237C115.956 85.5521 114.057 85.5521 112.885 86.7236L117.128 90.9663ZM76.9328 107.33L86.727 117.125L90.9697 112.882L81.1755 103.088L76.9328 107.33ZM90.9697 117.125L117.128 90.9663L112.885 86.7236L86.727 112.882L90.9697 117.125Z" fill="white" mask="url(#path-4-inside-1_2_25)"/>
<defs>
<linearGradient id="paint0_linear_2_25" x1="12" y1="97.5" x2="207" y2="97.5" gradientUnits="userSpaceOnUse">
<stop stop-color="#BF5AE0"/>
<stop offset="1" stop-color="#7B61FF"/>
</linearGradient>
</defs>
</svg>
