<svg width="207" height="203" viewBox="0 0 207 203" fill="none" xmlns="http://www.w3.org/2000/svg">
<circle cx="109.5" cy="97.5" r="97.5" fill="url(#paint0_linear_2_25)"/>
<circle cx="97.5" cy="105.5" r="96" stroke="#6061F6" stroke-width="3"/>
<path d="M106.181 55.0206L106.183 55.0234L116.884 76.4257C116.885 76.4276 116.886 76.4295 116.887 76.4314C117.752 78.1944 119.277 79.8259 120.975 81.0791C122.676 82.3344 124.687 83.3105 126.623 83.633L126.623 83.6331L146.028 86.8572C151.975 87.8482 155.132 90.4081 156.048 93.2582C156.963 96.105 155.889 100.012 151.605 104.267L151.602 104.27L136.515 119.357C135.013 120.859 133.918 122.977 133.297 125.145C132.677 127.314 132.485 129.689 132.949 131.756L132.951 131.766L137.27 150.441C138.944 157.706 137.664 161.975 135.27 163.72C132.874 165.467 128.403 165.385 121.975 161.588L103.787 150.821C103.787 150.821 103.787 150.821 103.787 150.821C101.856 149.677 99.3999 149.152 97.0228 149.152C94.6441 149.152 92.178 149.678 90.2231 150.815L90.2134 150.821L72.0242 161.588L72.0228 161.589C65.6319 165.382 61.1595 165.454 58.7531 163.698C56.3479 161.943 55.0575 157.669 56.7297 150.442L56.7298 150.442L61.049 131.766L61.0512 131.756C61.5145 129.689 61.3234 127.314 60.7026 125.145C60.0819 122.977 58.9871 120.859 57.4848 119.357L42.3982 104.27C38.1433 100.015 37.0656 96.1059 37.9758 93.2555C38.8855 90.4066 42.0268 87.8479 47.9716 86.8572L67.3767 83.6331L67.382 83.6322C69.2883 83.3085 71.2836 82.3308 72.9745 81.0771C74.6635 79.8248 76.1878 78.1939 77.0526 76.4314C77.0536 76.4295 77.0545 76.4276 77.0554 76.4257L87.7552 55.0262C87.7556 55.0255 87.7559 55.0249 87.7562 55.0242C90.5676 49.4317 94.0001 47.1382 96.9924 47.1382C99.9824 47.1382 103.4 49.4289 106.181 55.0206Z" stroke="white" stroke-width="3" stroke-linecap="round" stroke-linejoin="round"/>
<defs>
<linearGradient id="paint0_linear_2_25" x1="12" y1="97.5" x2="207" y2="97.5" gradientUnits="userSpaceOnUse">
<stop stop-color="#BF5AE0"/>
<stop offset="1" stop-color="#7B61FF"/>
</linearGradient>
</defs>
</svg>
